<svg xmlns="http://www.w3.org/2000/svg" viewBox="0 0 48 48">
  <path fill="#EA4335" d="M24 9.5c3.54 0 6.13 1.53 7.53 2.81l5.53-5.53C33.64 3.64 29.2 1.5 24 1.5 14.64 1.5 6.67 7.98 3.94 16.59l6.46 5.02C12.1 14.03 17.62 9.5 24 9.5z"></path>
  <path fill="#4285F4" d="M46.5 24c0-1.64-.15-3.22-.43-4.75H24v9h12.7c-.55 2.96-2.18 5.47-4.63 7.16l7.47 5.8C43.92 36.76 46.5 30.9 46.5 24z"></path>
  <path fill="#FBBC05" d="M10.4 28.39c-.45-1.35-.7-2.78-.7-4.39s.25-3.04.7-4.39l-6.46-5.02C2.1 17.77 1.5 20.83 1.5 24s.6 6.23 1.94 9.41l6.46-5.02z"></path>
  <path fill="#34A853" d="M24 46.5c5.2 0 9.64-1.72 12.85-4.69l-7.47-5.8c-2.08 1.4-4.74 2.23-5.38 2.23-6.38 0-11.9-4.53-13.6-10.61l-6.46 5.02C6.67 40.02 14.64 46.5 24 46.5z"></path>
</svg>
